<?xml version="1.0" encoding="utf-8"?>
<!-- Generator: Adobe Illustrator 16.0.0, SVG Export Plug-In . SVG Version: 6.00 Build 0)  -->
<!DOCTYPE svg PUBLIC "-//W3C//DTD SVG 1.1//EN" "http://www.w3.org/Graphics/SVG/1.1/DTD/svg11.dtd">
<svg version="1.1" id="cart" xmlns="http://www.w3.org/2000/svg" xmlns:xlink="http://www.w3.org/1999/xlink" x="0px" y="0px"
	 width="200px" height="200px" viewBox="0 0 200 200" enable-background="new 0 0 200 200" xml:space="preserve">
<path id="basket" d="M62.026,122.281c-5.575-26.326-11.175-52.536-16.614-78.778c-0.617-2.977-1.992-3.708-4.758-3.59
	c-4.324,0.184-8.672,0.192-12.987-0.077c-1.138-0.071-2.534-0.748-2.584-2.086c-0.05-1.326,1.319-2.493,2.375-2.533
	c5.989-0.229,12.001-0.295,17.98,0.051c2.562,0.148,2.812,0.982,3.725,3.097c0.11,0.254,0.169,0.63,0.252,0.952
	c2.86,11.139,2.853,11.144,14.59,11.139c35.322-0.013,70.646-0.03,105.968-0.043c1,0,2.002,0.098,2.998,0.044
	c4.057-0.221,5.193,1.355,4.291,5.459c-4.013,18.215-7.755,36.489-11.599,54.742c-0.858,4.074-1.985,8.111-2.53,12.226
	c-0.531,4.035-2.578,5.063-6.396,5.046c-28.658-0.128-57.316-0.078-85.975-0.078c-2.332,0-3.617-0.147-5.937,0.028
	c-3.124,0.234-4.911,0.902-5.609,4.5c-0.382,2.283,0.848,4.164,2.701,5.366c1.068,0.692,4.636,0.385,6.134,0.386
	c29.324,0.005,58.649,0.001,87.975,0.015c1.492,0.002,3.051-0.09,4.451,0.311c0.713,0.203,1.58,1.408,1.573,2.152
	c-0.006,0.734-0.889,1.813-1.635,2.105c-1.026,0.404-2.288,0.27-3.449,0.27c-30.489,0.012-60.981-0.016-91.472,0.035
	c-4.728,0.008-7.827-1.106-10.427-5.935c-0.833-3.122-0.489-5.41,0.683-8.589C56.583,125.996,59.75,124.005,62.026,122.281z
	 M53.354,55.626c0,1.036-0.113,1.702,0.017,2.317c4.315,20.519,8.736,41.017,12.909,61.564c0.704,3.466,2.649,3.524,5.325,3.521
	c27.304-0.055,54.608-0.106,81.911,0.031c3.479,0.018,4.916-0.9,5.617-4.442c3.039-15.343,6.418-30.618,9.646-45.924
	c1.184-5.615,2.294-11.246,3.478-17.066C132.169,55.626,92.823,55.626,53.354,55.626z"/>
<circle id="tire2" fill="none" stroke="#000000" cx="77.286" cy="158" r="9.5"/>
<circle id="tire1" fill="none" stroke="#000000" cx="139.173" cy="158" r="9.5"/>
</svg>
