{
    "asset" : {
        "generator" : "Khronos glTF Blender I/O v3.2.40",
        "version" : "2.0"
    },
    "scene" : 0,
    "scenes" : [
        {
            "name" : "Scene",
            "nodes" : [
                0
            ]
        }
    ],
    "nodes" : [
        {
            "mesh" : 0,
            "name" : "icongrp",
            "rotation" : [
                0.7071068286895752,
                0,
                0,
                0.7071067094802856
            ]
        }
    ],
    "materials" : [
        {
            "alphaMode" : "BLEND",
            "doubleSided" : true,
            "name" : "plateTexture",
            "pbrMetallicRoughness" : {
                "baseColorFactor" : [
                    0.5,
                    0.5,
                    0.5,
                    1
                ],
                "metallicFactor" : 0
            }
        },
        {
            "alphaMode" : "BLEND",
            "doubleSided" : true,
            "name" : "cartTexture",
            "pbrMetallicRoughness" : {
                "metallicFactor" : 0
            }
        },
        {
            "alphaMode" : "BLEND",
            "doubleSided" : true,
            "name" : "heartTexture",
            "pbrMetallicRoughness" : {
                "metallicFactor" : 0
            }
        }
    ],
    "meshes" : [
        {
            "name" : "icons",
            "primitives" : [
                {
                    "attributes" : {
                        "POSITION" : 0,
                        "NORMAL" : 1,
                        "TEXCOORD_0" : 2
                    },
                    "indices" : 3,
                    "material" : 0
                },
                {
                    "attributes" : {
                        "POSITION" : 4,
                        "NORMAL" : 5,
                        "TEXCOORD_0" : 6
                    },
                    "indices" : 7,
                    "material" : 1
                },
                {
                    "attributes" : {
                        "POSITION" : 8,
                        "NORMAL" : 9,
                        "TEXCOORD_0" : 10
                    },
                    "indices" : 11,
                    "material" : 2
                }
            ]
        }
    ],
    "accessors" : [
        {
            "bufferView" : 0,
            "componentType" : 5126,
            "count" : 46,
            "max" : [
                0,
                0.1115259975194931,
                -0.9624789953231812
            ],
            "min" : [
                -0.02037299983203411,
                -0.8803390264511108,
                -1.4673869609832764
            ],
            "type" : "VEC3"
        },
        {
            "bufferView" : 1,
            "componentType" : 5126,
            "count" : 46,
            "type" : "VEC3"
        },
        {
            "bufferView" : 2,
            "componentType" : 5126,
            "count" : 46,
            "type" : "VEC2"
        },
        {
            "bufferView" : 3,
            "componentType" : 5123,
            "count" : 96,
            "type" : "SCALAR"
        },
        {
            "bufferView" : 4,
            "componentType" : 5126,
            "count" : 335,
            "max" : [
                -0.017316000536084175,
                -0.4446820020675659,
                -1.126466989517212
            ],
            "min" : [
                -0.04901399835944176,
                -0.8070269823074341,
                -1.382375955581665
            ],
            "type" : "VEC3"
        },
        {
            "bufferView" : 5,
            "componentType" : 5126,
            "count" : 335,
            "type" : "VEC3"
        },
        {
            "bufferView" : 6,
            "componentType" : 5126,
            "count" : 335,
            "type" : "VEC2"
        },
        {
            "bufferView" : 7,
            "componentType" : 5123,
            "count" : 513,
            "type" : "SCALAR"
        },
        {
            "bufferView" : 8,
            "componentType" : 5126,
            "count" : 404,
            "max" : [
                -0.01893099956214428,
                0.0009459999855607748,
                -1.111915946006775
            ],
            "min" : [
                -0.04881500080227852,
                -0.2892870008945465,
                -1.3656790256500244
            ],
            "type" : "VEC3"
        },
        {
            "bufferView" : 9,
            "componentType" : 5126,
            "count" : 404,
            "type" : "VEC3"
        },
        {
            "bufferView" : 10,
            "componentType" : 5126,
            "count" : 404,
            "type" : "VEC2"
        },
        {
            "bufferView" : 11,
            "componentType" : 5123,
            "count" : 852,
            "type" : "SCALAR"
        }
    ],
    "bufferViews" : [
        {
            "buffer" : 0,
            "byteLength" : 552,
            "byteOffset" : 0
        },
        {
            "buffer" : 0,
            "byteLength" : 552,
            "byteOffset" : 552
        },
        {
            "buffer" : 0,
            "byteLength" : 368,
            "byteOffset" : 1104
        },
        {
            "buffer" : 0,
            "byteLength" : 192,
            "byteOffset" : 1472
        },
        {
            "buffer" : 0,
            "byteLength" : 4020,
            "byteOffset" : 1664
        },
        {
            "buffer" : 0,
            "byteLength" : 4020,
            "byteOffset" : 5684
        },
        {
            "buffer" : 0,
            "byteLength" : 2680,
            "byteOffset" : 9704
        },
        {
            "buffer" : 0,
            "byteLength" : 1026,
            "byteOffset" : 12384
        },
        {
            "buffer" : 0,
            "byteLength" : 4848,
            "byteOffset" : 13412
        },
        {
            "buffer" : 0,
            "byteLength" : 4848,
            "byteOffset" : 18260
        },
        {
            "buffer" : 0,
            "byteLength" : 3232,
            "byteOffset" : 23108
        },
        {
            "buffer" : 0,
            "byteLength" : 1704,
            "byteOffset" : 26340
        }
    ],
    "buffers" : [
        {
            "byteLength" : 28044,
            "uri" : "data:application/octet-stream;base64,"
        }
    ]
}
